<svg class="img-fluid" id="outputsvg" xmlns="http://www.w3.org/2000/svg" style="transform: matrix(1.69, 0, 0, 1.69, 11, 105); transform-origin: 50% 50% 0px; cursor: move; max-height: none; transition: none 0s ease 0s ;" width="256" height="158" viewBox="0 0 2560 1580"><g id="l6ESoCpH7sHOXH3CP36389s" fill="rgb(254,254,255)" style="transform: none;"><g><path id="pW2bhQpQp" d="M0 790 l0 -790 1280 0 1280 0 0 790 0 790 -1280 0 -1280 0 0 -790z m1385 516 c-86 -33 -187 -85 -328 -170 -315 -189 -565 -279 -716 -260 l-56 8 75 12 c129 21 233 64 437 182 323 186 477 250 598 251 l50 0 -60 -23z m205 -85 c-116 -50 -218 -116 -395 -256 -214 -168 -429 -302 -586 -364 -95 -37 -235 -64 -285 -55 -37 7 -37 7 33 24 145 37 261 98 449 237 429 314 556 387 744 428 100 21 111 17 40 -14z m248 -93 c-129 -66 -230 -139 -433 -313 -257 -220 -447 -356 -623 -444 -177 -89 -293 -118 -447 -112 l-50 2 97 28 c54 15 148 53 210 84 122 61 203 119 465 334 279 229 439 338 592 403 88 38 202 69 254 69 35 1 30 -3 -65 -51z m266 -69 c19 -15 26 -30 26 -55 0 -32 2 -34 33 -34 17 1 43 7 57 15 67 38 171 -6 234 -100 33 -48 33 -66 -4 -143 -17 -35 -30 -79 -30 -98 0 -35 -28 -74 -53 -74 -7 0 -18 -20 -25 -44 -8 -32 -20 -49 -45 -63 -23 -14 -37 -32 -45 -61 -16 -54 -39 -65 -144 -72 -74 -5 -91 -10 -113 -30 -23 -22 -34 -25 -85 -22 -39 3 -68 -1 -88 -12 -17 -9 -55 -16 -86 -16 -30 0 -66 -4 -81 -10 -32 -12 -79 6 -114 44 -32 34 -68 34 -138 0 -53 -26 -54 -26 -98 -10 -46 18 -99 70 -116 113 -20 53 -12 65 79 135 48 36 157 126 243 200 86 73 193 160 239 192 89 64 279 166 309 166 10 0 30 -9 45 -21z"></path></g></g><g id="l1OEHIaalnF4dMm63FyLtuv" fill="rgb(29,133,184)" style="transform: none;"><g><path id="pTUGMLIYT" d="M1254 1341 c-128 -36 -230 -86 -487 -233 -249 -144 -345 -178 -512 -185 -66 -3 -140 0 -164 5 -71 17 -33 -4 78 -42 61 -22 134 -39 176 -43 182 -15 419 69 744 264 233 140 409 211 530 214 l46 1 -55 18 c-75 25 -270 26 -356 1z"></path><path id="pleT8bkI2" d="M1520 1265 c-150 -33 -312 -116 -525 -270 -325 -235 -379 -273 -457 -313 -148 -76 -321 -118 -448 -108 l-65 5 60 -20 c33 -11 109 -28 169 -37 101 -15 115 -15 206 1 208 35 457 169 765 412 140 111 268 196 361 240 63 30 101 42 229 74 27 7 23 9 -36 19 -84 15 -177 14 -259 -3z"></path><path id="pggpYUOA1" d="M1861 1210 c-235 -32 -437 -147 -834 -473 -268 -220 -343 -274 -472 -337 -163 -80 -279 -110 -439 -111 -134 -1 -131 -4 64 -40 141 -27 288 -29 380 -5 251 65 500 220 875 541 88 75 201 166 250 202 112 81 293 171 374 186 57 11 72 19 54 30 -17 10 -193 15 -252 7z"></path><path id="p2tLx1Pu4" d="M1907 1057 c-130 -66 -229 -137 -420 -301 -83 -70 -191 -160 -241 -198 -50 -38 -95 -78 -100 -89 -15 -31 10 -120 46 -163 62 -75 156 -95 243 -51 l49 24 37 -34 c45 -41 96 -52 158 -36 25 6 60 9 77 5 22 -4 47 1 80 16 36 16 58 19 84 14 51 -10 71 -6 103 24 24 23 38 27 115 32 105 7 128 18 144 72 8 29 22 47 45 61 25 14 37 31 45 63 7 24 18 44 25 44 25 0 53 39 53 74 0 19 13 63 30 98 39 82 41 149 5 202 -73 108 -199 151 -296 100 l-29 -15 0 35 c0 48 -37 76 -101 76 -39 0 -69 -11 -152 -53z"></path></g></g></svg>
