<svg xmlns="http://www.w3.org/2000/svg" data-name="splitsvg copy 7" viewBox="0 0 207.44 34.77">
  <path fill="none" d="M2.87 26.7a21.83 21.83 0 012.76-1 10.74 10.74 0 002.86-1.37 4.2 4.2 0 001.62-2.85 3.9 3.9 0 01-1.95.65 2 2 0 01-1.34-.49 2 2 0 01-.7-1.2l-.26-1.37a22.4 22.4 0 01-.29-.69h.73a6 6 0 001.54.44l.44-.23a.89.89 0 00.42-.89 2.13 2.13 0 00-.88-1.64 3.16 3.16 0 00-2.07-.73 4.08 4.08 0 00-2.32.75 4.36 4.36 0 00-1.74 2.2 1.92 1.92 0 01.9-.32 1.1 1.1 0 01.88.49 1.87 1.87 0 01.38 1.2 1.74 1.74 0 01-.44 1.24 1.43 1.43 0 01-1.1.48 2.17 2.17 0 01-1-.21v.32a6.3 6.3 0 00.25 2 12.79 12.79 0 001.31 3.22z"/>
  <path d="M24.54 33.01c1-2.11.53-6.83-3-3.53l-1.31 1.22a7.88 7.88 0 01-2.88 1.62 12.22 12.22 0 01-4.08.68h-1a12.3 12.3 0 003.75-1.26 9.17 9.17 0 005-8.49 7.24 7.24 0 00-1.4-4.51 4.06 4.06 0 00-3.3-1.84 3.48 3.48 0 00-2.39 1.31v-.31c0-2.36 1.64-3.75 4.91-4.19l1.37-.17a11.45 11.45 0 00-1.28-2.74 11 11 0 00-4.8 3.12 15.71 15.71 0 00-1.51-2.22c.87-.69 1.3-1.33 1.3-1.9 0-.75-.31-1.13-.93-1.13-.42 0-1.19.48-2.3 1.44a3.08 3.08 0 01-1.55.83h-.3a2.74 2.74 0 01-1.31-.24l-.23.25a4.68 4.68 0 002.92 1.55 2.91 2.91 0 00.89-.14l.34-.07c.21-.05.62.32 1.24 1.1a3.65 3.65 0 01.92 1.6 5.17 5.17 0 00-.34 1.14 9.66 9.66 0 00-.34 2.57 4.53 4.53 0 00.89 2.76 2.49 2.49 0 002 1.19 1.59 1.59 0 001.55-1.54 1.42 1.42 0 00-.37-.95 1.1 1.1 0 00-.83-.43 2.29 2.29 0 00-.78.28 2.79 2.79 0 01-.66.27c-.26 0-.39-.21-.39-.62a1.59 1.59 0 01.58-1.21 2 2 0 011.39-.51 3.11 3.11 0 012.59 1.5 6.49 6.49 0 011 3.83 8.7 8.7 0 01-2.65 6.36 8.65 8.65 0 01-6.32 2.66 8.31 8.31 0 01-6.52-3.35l.3-.24 2.22-1.28a10.68 10.68 0 003-2.72 7.9 7.9 0 001.46-4.68 6.25 6.25 0 00-1.61-4.32 5.18 5.18 0 00-4-1.7q-3.11 0-4.89 3.6A12 12 0 012 13.35a9.72 9.72 0 011.72-2.32l1-.81.32-.39.07-.4c0-.19-.08-.45-.35-.79q4.17-4.4 9.17-4.4a8.08 8.08 0 015.81 2.13q3.87 3.71 3.88 12.6v.32h150.1l2.91-.59H24.19v-.3a23.3 23.3 0 00-1.16-7.54 12.3 12.3 0 00-2.92-4.94 8.55 8.55 0 00-6.18-2.28 11.66 11.66 0 00-5.8 1.5 20.67 20.67 0 00-4.3 3.46l-.27.24a13.8 13.8 0 012.6-3.92 13 13 0 019.43-4.3 9.75 9.75 0 017.73 3.64q3.26 3.81 4 10.68v.32h147.4l.45-.58H27.93v-.32A18.8 18.8 0 0023.79 3.9 10.51 10.51 0 0015.54 0Q10.43 0 5.03 5.12a1.93 1.93 0 01-1.32-2.06 2.84 2.84 0 01.27-1 6.17 6.17 0 00.36-1l.13-.48-.2-.38-.34-.16c-.4.06-.64.4-.72 1l-.08.86-.1.33-.16-.26C2.13.7 1.47.04.93.04Q.42.04.42.49a.74.74 0 00.25.55l.36.37a4.14 4.14 0 01.9 1.29l.14.37-.35-.17a6.09 6.09 0 00-1.34-.58.33.33 0 00-.34.38c0 .31.31.62.93 1l1.18.6c1.18.55 1.78 1.17 1.78 1.82a2.36 2.36 0 01-.65 1.37l-.44-.1a1.69 1.69 0 00-.82-.13 2.75 2.75 0 00-2 .95v.18A8.14 8.14 0 012.11 9.7l-.1.24a22.21 22.21 0 00-2 8.72 19.52 19.52 0 002 8.7 5.79 5.79 0 00-2 4.22 3.47 3.47 0 001.18 2.48h.14a9.57 9.57 0 012.19-4.36q4.5 4.32 9.61 4.33a16.06 16.06 0 008.07-2.27l.28.58a2.47 2.47 0 01.23.75c0 1 .6 1 1.76 1M1.32 21.45v-.32a2.17 2.17 0 001 .21 1.43 1.43 0 001.1-.48 1.74 1.74 0 00.44-1.24 1.87 1.87 0 00-.38-1.2 1.1 1.1 0 00-.88-.49 1.92 1.92 0 00-.9.32 4.36 4.36 0 011.74-2.2 4.08 4.08 0 012.32-.75 3.16 3.16 0 012.07.73 2.13 2.13 0 01.87 1.67.89.89 0 01-.42.89l-.44.23a6 6 0 01-1.54-.44h-.73l.29.69.26 1.37a2 2 0 00.7 1.2 2 2 0 001.34.49 3.9 3.9 0 001.95-.65 4.2 4.2 0 01-1.62 2.85 10.74 10.74 0 01-2.86 1.37 21.83 21.83 0 00-2.76 1 12.79 12.79 0 01-1.3-3.32 6.3 6.3 0 01-.25-1.93z"/>
  <path d="M24.58 7.88q-3-6.36-9-6.37a14.35 14.35 0 00-7.22 2.52 16.71 16.71 0 015.67-1.33 9.18 9.18 0 017.84 3.9q2.85 3.9 3.11 11.21h148.73v-1.65H26.56a27 27 0 00-1.98-8.28z"/>
  <path d="M182.93 33.01c-1-2.09-.54-6.84 3-3.53l1.31 1.22a8.51 8.51 0 002.94 1.64 12.38 12.38 0 004 .66h1a11.81 11.81 0 01-3.75-1.26 9.09 9.09 0 01-5-8.46 7.32 7.32 0 011.43-4.58 4 4 0 013.29-1.81 3.5 3.5 0 012.41 1.3v-.29c0-2.36-1.64-3.75-4.91-4.19l-1.37-.17a20.29 20.29 0 011.23-2.74 10.72 10.72 0 014.8 3.12 8.88 8.88 0 011.55-2.22c-.87-.69-1.3-1.32-1.3-1.87 0-.77.32-1.16 1-1.16a3.88 3.88 0 011.93 1.15 3.72 3.72 0 002.22 1.16 4.6 4.6 0 001.22-.28l.23.25a4.68 4.68 0 01-2.92 1.55 3.08 3.08 0 01-.61-.07l-.28-.07-.37-.07c-.19 0-.58.31-1.18 1.05a3.91 3.91 0 00-.95 1.65l.11.39a13.69 13.69 0 01.58 3.29 4.53 4.53 0 01-.89 2.76 2.51 2.51 0 01-2 1.19 1.43 1.43 0 01-1.05-.46 1.48 1.48 0 01-.46-1.08 1.42 1.42 0 01.37-.95 1.1 1.1 0 01.83-.43 2.29 2.29 0 01.78.28 2.79 2.79 0 00.66.27c.26 0 .39-.21.39-.62a1.58 1.58 0 00-.59-1.2 2 2 0 00-1.38-.52 3.11 3.11 0 00-2.59 1.5 6.49 6.49 0 00-1 3.83 8.7 8.7 0 002.65 6.36 8.65 8.65 0 006.35 2.67 8.41 8.41 0 006.52-3.35l-.33-.22-2.24-1.28a10.46 10.46 0 01-2.94-2.72 7.79 7.79 0 01-1.48-4.69 6.26 6.26 0 011.56-4.31 5.14 5.14 0 014-1.71q3.11 0 4.89 3.6a18.16 18.16 0 00-.41-2.51 9.41 9.41 0 00-1.49-3 9.58 9.58 0 00-1.62-1.65 1.54 1.54 0 01-.65-1 1.14 1.14 0 01.35-.79q-4.19-4.36-9.17-4.36a8 8 0 00-5.81 2.13q-3.86 3.67-3.86 12.56v.32h-11.47v-.59h10.86v-.3a23.4 23.4 0 011.16-7.57 12.09 12.09 0 012.92-4.94 8.5 8.5 0 016.12-2.27 11.79 11.79 0 015.89 1.53 21 21 0 014.25 3.43l.27.24a16.53 16.53 0 00-.88-1.72 11.92 11.92 0 00-1.73-2.2 13.06 13.06 0 00-9.39-4.28 9.78 9.78 0 00-7.61 3.53q-3.36 3.81-4.13 10.79v.32h-7.67v-.56h7.09v-.32a18.8 18.8 0 014.08-10.48 10.51 10.51 0 018.24-3.9q5.12 0 10.51 5.12a1.85 1.85 0 001.32-2 3 3 0 00-.27-1.13 7.25 7.25 0 01-.36-.93L203 .58a.48.48 0 01.15-.33.47.47 0 01.36-.19c.39 0 .63.34.72 1l.11.83.1.33.16-.26c.74-1.29 1.41-1.93 2-1.93.31 0 .47.15.47.45a.74.74 0 01-.25.55l-.36.37a4.18 4.18 0 00-1.11 1.65l.35-.17a6.43 6.43 0 011.34-.59.34.34 0 01.38.39c0 .31-.31.62-.93 1l-1.18.6c-1.18.61-1.77 1.23-1.77 1.88a2.69 2.69 0 00.65 1.37l.44-.1a1.88 1.88 0 01.82-.13 2.93 2.93 0 012 .95v.18a8.14 8.14 0 00-2.07 1.3l.1.24a22.21 22.21 0 012 8.72 19.8 19.8 0 01-2 8.7 5.87 5.87 0 012 4.19 3.49 3.49 0 01-1.14 2.51h-.14a10.24 10.24 0 00-2.27-4.39q-4.5 4.32-9.61 4.33a16.31 16.31 0 01-8.07-2.27c-.09 1.47-.78 2.3-2.27 2.3m-11.52-17.9h8.47c.2-1.77.39-3.11.58-4a18.44 18.44 0 011.4-4.27q3-6.36 9-6.37 3.06 0 7.22 2.52a16.71 16.71 0 00-5.68-1.34 9.15 9.15 0 00-7.85 3.91q-2.83 3.92-3.1 11.2h-10zm29.16 2.88l-.26 1.37a2 2 0 01-.7 1.2 2.07 2.07 0 01-1.34.49 3.85 3.85 0 01-1.95-.65 4.19 4.19 0 001.6 2.83 10.5 10.5 0 002.85 1.42 19.13 19.13 0 012.79 1q1.75-3.25 1.55-5.29v-.32a2.17 2.17 0 01-.95.21c-1 0-1.54-.58-1.54-1.76a1.78 1.78 0 01.38-1.16 1.08 1.08 0 01.88-.49 2.6 2.6 0 01.9.32 4.3 4.3 0 00-1.71-2.2 4.05 4.05 0 00-2.32-.75 3.2 3.2 0 00-2.08.73 2.13 2.13 0 00-.9 1.64 1.26 1.26 0 00.42.89l.44.23a6.62 6.62 0 001.54-.44h.71zM95.57 24.95a12.09 12.09 0 00-6.64 2.39 5.51 5.51 0 00-2.52 4.36c0 1.32.5 2 1.51 2 .75 0 1.13-.35 1.13-1a1.86 1.86 0 00-.24-.84 1.74 1.74 0 01-.24-.67c0-.31.15-.46.44-.46a1 1 0 01.8.54 2.3 2.3 0 01.34 1.29 2.24 2.24 0 01-.56 1.59 1.92 1.92 0 01-1.47.6 2.41 2.41 0 01-1.82-.73 2.91 2.91 0 01-.75-2.11 6.77 6.77 0 013.16-5.54 13.75 13.75 0 018.34-2.44 7.93 7.93 0 016.32 2.62 8 8 0 016.37-2.62 13.7 13.7 0 018.31 2.44 6.77 6.77 0 013.18 5.54 2.83 2.83 0 01-.74 2.08 2.47 2.47 0 01-1.86.76 1.94 1.94 0 01-1.48-.6 2.29 2.29 0 01-.56-1.59 2.37 2.37 0 01.34-1.29.93.93 0 01.77-.54c.32 0 .47.15.47.46a1.74 1.74 0 01-.23.67 1.8 1.8 0 00-.24.84c0 .7.37 1 1.12 1 1 0 1.55-.66 1.55-2a5.48 5.48 0 00-2.53-4.36 12.47 12.47 0 00-6.7-2.38 7.16 7.16 0 013 2.41 5.63 5.63 0 011.05 3.33 4.2 4.2 0 01-1.05 2.89 3.27 3.27 0 01-2.52 1.17 2.54 2.54 0 01-1.85-.72 1.85 1.85 0 01-.67-1.33c0-.4.16-.6.46-.6s.45.09.48.28a1.35 1.35 0 001.44 1.37c.73 0 1.1-.31 1.1-.93s-.45-1-1.37-1.53a8.3 8.3 0 01-1.39-.82 2.23 2.23 0 01-.44-1.55c0-1.2.32-1.79.94-1.79a4.08 4.08 0 011.4.56 4.51 4.51 0 001.92.58 6.23 6.23 0 00-2.27-2.23 5.92 5.92 0 00-3.09-.87 5 5 0 00-3.3 1 3.17 3.17 0 00-1.26 2.53v.28a7.85 7.85 0 001.25-.89 1.74 1.74 0 01.96-.4 1.48 1.48 0 011.1.66 2.71 2.71 0 01.64 1.81 3.52 3.52 0 01-.42 1.65c-.27.53-.54.8-.81.8a1.94 1.94 0 01-1-.51 8.36 8.36 0 00-1.32-.93c.65 1.54 1 2.35 1 2.4 0 .8-.56 1.2-1.69 1.2s-1.68-.38-1.68-1.14a18.72 18.72 0 011-2.46 9.35 9.35 0 00-1.33.93 2.06 2.06 0 01-1 .51c-.3 0-.59-.27-.84-.79a3.71 3.71 0 01-.39-1.66 2.75 2.75 0 01.63-1.81 1.5 1.5 0 011.11-.66 1.69 1.69 0 01.91.49 8.34 8.34 0 001.25.89v-.28a3.17 3.17 0 00-1.26-2.53 5.12 5.12 0 00-3.33-1 5.91 5.91 0 00-3.11.92 6.08 6.08 0 00-2.21 2.18 4.43 4.43 0 001.84-.67 4.18 4.18 0 011.41-.56c.6 0 .9.57.9 1.72a2.12 2.12 0 01-1 2.06 13.83 13.83 0 00-1.65.94 1.29 1.29 0 00-.51 1c0 .59.36.89 1.07.89q1.29 0 1.41-1 .08-.63.51-.63c.33 0 .49.2.49.6a1.85 1.85 0 01-.68 1.35 2.65 2.65 0 01-1.87.7 3.24 3.24 0 01-2.53-1.18 4.26 4.26 0 01-1-2.91 5.69 5.69 0 011.08-3.31 7 7 0 012.92-2.42z"/>
</svg>
